<svg id="e3a2j5dyxsy41" xmlns="http://www.w3.org/2000/svg" xmlns:xlink="http://www.w3.org/1999/xlink" viewBox="60 200 350 675" shape-rendering="geometricPrecision" text-rendering="geometricPrecision"><style><![CDATA[#e3a2j5dyxsy423_to {animation: e3a2j5dyxsy423_to__to 3000ms linear infinite normal forwards}@keyframes e3a2j5dyxsy423_to__to { 0% {transform: translate(62.050000px,63.600000px)} 50% {transform: translate(52.046216px,43.595719px)} 100% {transform: translate(62.050000px,63.600000px)} }#e3a2j5dyxsy424_to {animation: e3a2j5dyxsy424_to__to 3000ms linear infinite normal forwards}@keyframes e3a2j5dyxsy424_to__to { 0% {transform: translate(62.050000px,63.600000px)} 50% {transform: translate(57.052535px,63.600000px)} 100% {transform: translate(62.050000px,63.600000px)} }#e3a2j5dyxsy425_to {animation: e3a2j5dyxsy425_to__to 3000ms linear infinite normal forwards}@keyframes e3a2j5dyxsy425_to__to { 0% {transform: translate(62.050000px,63.600000px)} 50% {transform: translate(52.046216px,43.595719px)} 100% {transform: translate(62.050000px,63.600000px)} }#e3a2j5dyxsy426_to {animation: e3a2j5dyxsy426_to__to 3000ms linear infinite normal forwards}@keyframes e3a2j5dyxsy426_to__to { 0% {transform: translate(62.050000px,63.600000px)} 50% {transform: translate(65.045009px,60.600000px)} 100% {transform: translate(62.050000px,63.600000px)} }]]></style><defs><linearGradient id="e3a2j5dyxsy48-fill" x1="-0" y1="498.940000" x2="0.920000" y2="498.940000" spreadMethod="pad" gradientUnits="userSpaceOnUse"><stop id="e3a2j5dyxsy48-fill-0" offset="0%" stop-color="rgb(238,117,40)"/><stop id="e3a2j5dyxsy48-fill-1" offset="22%" stop-color="rgb(238,117,40)"/><stop id="e3a2j5dyxsy48-fill-2" offset="68%" stop-color="rgb(229,81,45)"/><stop id="e3a2j5dyxsy48-fill-3" offset="100%" stop-color="rgb(229,81,45)"/></linearGradient><linearGradient id="e3a2j5dyxsy418-fill" x1="0.010000" y1="498.940000" x2="0.930000" y2="498.940000" spreadMethod="pad" gradientUnits="userSpaceOnUse"><stop id="e3a2j5dyxsy418-fill-0" offset="0%" stop-color="rgb(238,117,40)"/><stop id="e3a2j5dyxsy418-fill-1" offset="22%" stop-color="rgb(238,117,40)"/><stop id="e3a2j5dyxsy418-fill-2" offset="68%" stop-color="rgb(229,81,45)"/><stop id="e3a2j5dyxsy418-fill-3" offset="100%" stop-color="rgb(229,81,45)"/></linearGradient></defs><g id="e3a2j5dyxsy42"><g id="e3a2j5dyxsy43"><g id="e3a2j5dyxsy44" clip-path="url(#e3a2j5dyxsy411)"><g id="e3a2j5dyxsy45"><g id="e3a2j5dyxsy46" clip-path="url(#e3a2j5dyxsy49)"><g id="e3a2j5dyxsy47"><rect id="e3a2j5dyxsy48" width="592.200000" height="997.880000" rx="0" ry="0" transform="matrix(0.97437000000000 -0.22495100000000 0.22495100000000 0.97437000000000 -0.00185878000001 133.21774880000001)" fill="url(#e3a2j5dyxsy48-fill)" stroke="none" stroke-width="1"/></g><clipPath id="e3a2j5dyxsy49" transform="matrix(1 0 0 1 62.05000000000000 63.60000000000000)"><rect id="e3a2j5dyxsy410" width="410" height="941.750000" rx="0" ry="0" transform="matrix(1 0 0 1 -62.06000000000000 100.30000000000001)" fill="none" stroke="none" stroke-width="1"/></clipPath></g></g><clipPath id="e3a2j5dyxsy411" transform="matrix(1 0 0 1 62.05000000000000 63.60000000000000)"><path id="e3a2j5dyxsy412" d="M4.410000,357.430000C4.470000,357.720000,4.540000,358.020000,4.610000,358.310000L4.690000,358.670000C18.500000,418.210000,65.850000,480.930000,80.340000,500.130000C107.530000,536.130000,131.610000,568.050000,173.820000,591.880000C246.390000,632.880000,281.950000,598.800000,324.090000,633.390000C376.820000,676.680000,335.980000,742.180000,389.160000,839.050000C391.840000,843.940000,454.420000,955.380000,520.160000,949.610000C588.160000,943.610000,648.580000,813.420000,653.160000,696.150000C658.520000,558.220000,583.160000,527.320000,398.250000,184.440000C326.460000,51.300000,313.060000,10,268.090000,1.500000C255,-1,240.940000,-0.320000,226.460000,3C113.780000,29,-26.920000,217.760000,4.460000,357.430000" fill="none" stroke="none" stroke-width="1"/></clipPath></g><g id="e3a2j5dyxsy413" opacity="0.2"><g id="e3a2j5dyxsy414" clip-path="url(#e3a2j5dyxsy421)"><g id="e3a2j5dyxsy415"><g id="e3a2j5dyxsy416" clip-path="url(#e3a2j5dyxsy419)"><g id="e3a2j5dyxsy417"><rect id="e3a2j5dyxsy418" width="592.200000" height="997.880000" rx="0" ry="0" transform="matrix(0.97437000000000 -0.22495100000000 0.22495100000000 0.97437000000000 0.00254342000000 145.41506279999999)" fill="url(#e3a2j5dyxsy418-fill)" stroke="none" stroke-width="1"/></g><clipPath id="e3a2j5dyxsy419" transform="matrix(1 0 0 1 62.05000000000000 63.60000000000000)"><rect id="e3a2j5dyxsy420" width="410" height="941.750000" rx="0" ry="0" transform="matrix(1 0 0 1 -62.06000000000000 112.49000000000001)" fill="none" stroke="none" stroke-width="1"/></clipPath></g></g><clipPath id="e3a2j5dyxsy421" transform="matrix(1 0 0 1 62.05000000000000 63.60000000000000)"><path id="e3a2j5dyxsy422" d="M4.410000,369.620000C4.470000,369.910000,4.540000,370.210000,4.610000,370.500000L4.690000,370.860000C18.500000,430.400000,65.850000,493.120000,80.340000,512.320000C107.530000,548.320000,131.610000,580.240000,173.820000,604.070000C246.390000,645.070000,281.950000,610.990000,324.090000,645.580000C376.820000,688.870000,335.980000,754.370000,389.160000,851.240000C391.840000,856.130000,454.420000,967.570000,520.160000,961.800000C588.160000,955.800000,648.580000,825.610000,653.160000,708.340000C658.520000,570.410000,583.160000,539.510000,398.250000,196.630000C326.460000,63.490000,313.060000,22.180000,268.090000,13.690000C254.970000,11.210000,240.940000,11.870000,226.460000,15.210000C113.780000,41.210000,-26.920000,230,4.460000,369.620000" fill="none" stroke="none" stroke-width="1"/></clipPath></g></g><g id="e3a2j5dyxsy423_to" transform="translate(62.050000,63.600000)"><path id="e3a2j5dyxsy423" d="M305,699.730000C306.048890,699.706272,307.098149,699.756396,308.140000,699.880000C309.190000,700.030000,310.210000,700.140000,311.240000,700.340000C312.253409,700.541259,313.254933,700.798317,314.240000,701.110000C315.257281,701.412376,316.258568,701.766164,317.240000,702.170000C319.172848,702.995373,321.024247,703.999749,322.770000,705.170000C323.640000,705.760000,324.480000,706.380000,325.290000,707.040000C326.101849,707.703478,326.879515,708.407717,327.620000,709.150000C328.360000,709.890000,329.060000,710.670000,329.730000,711.480000C330.400000,712.290000,331.010000,713.130000,331.600000,714C332.774513,715.743173,333.779113,717.594986,334.600000,719.530000C335.006683,720.510342,335.360524,721.511778,335.660000,722.530000C335.970000,723.530000,336.220000,724.530000,336.430000,725.530000C336.635067,726.554992,336.788594,727.589626,336.890000,728.630000C336.995080,729.673308,337.045150,730.721426,337.040000,731.770000C337.064939,732.818904,337.014811,733.868249,336.890000,734.910000C336.740000,735.910000,336.630000,736.980000,336.430000,738.010000C336.228741,739.023409,335.971683,740.024933,335.660000,741.010000C335.362121,742.028737,335.008249,743.030260,334.600000,744.010000C333.783371,745.947063,332.778552,747.799279,331.600000,749.540000C331.010000,750.410000,330.390000,751.250000,329.730000,752.060000C329.066522,752.871849,328.362283,753.649515,327.620000,754.390000C326.880000,755.130000,326.100000,755.830000,325.290000,756.500000C324.480000,757.170000,323.640000,757.780000,322.770000,758.370000C321.026851,759.530602,319.174768,760.518603,317.240000,761.320000C316.261952,761.732634,315.260175,762.086595,314.240000,762.380000C313.240000,762.690000,312.240000,762.940000,311.240000,763.150000C310.215008,763.355067,309.180374,763.508594,308.140000,763.610000C307.096692,763.715080,306.048574,763.765150,305,763.760000C303.951096,763.784939,302.901751,763.734811,301.860000,763.610000C300.810000,763.460000,299.780000,763.350000,298.760000,763.150000C297.746865,762.947538,296.745406,762.690497,295.760000,762.380000C294.739825,762.086595,293.738048,761.732634,292.760000,761.320000C290.826251,760.516447,288.974372,759.528555,287.230000,758.370000C286.360000,757.780000,285.520000,757.160000,284.710000,756.500000C283.898151,755.836522,283.120485,755.132283,282.380000,754.390000C281.640000,753.650000,280.940000,752.870000,280.270000,752.060000C279.600000,751.250000,278.990000,750.410000,278.400000,749.540000C277.225171,747.797019,276.220553,745.945174,275.400000,744.010000C274.991751,743.030260,274.637879,742.028737,274.340000,741.010000C274.030000,740.010000,273.780000,739.010000,273.570000,738.010000C273.364933,736.985008,273.211406,735.950374,273.110000,734.910000C273.004920,733.866692,272.954850,732.818574,272.960000,731.770000C272.935061,730.721096,272.985189,729.671751,273.110000,728.630000C273.260000,727.580000,273.370000,726.550000,273.570000,725.530000C273.772462,724.516865,274.029503,723.515406,274.340000,722.530000C274.639476,721.511778,274.993317,720.510342,275.400000,719.530000C276.224844,717.596897,277.229246,715.745449,278.400000,714C278.990000,713.130000,279.610000,712.290000,280.270000,711.480000C280.933478,710.668151,281.637717,709.890485,282.380000,709.150000C283.120000,708.410000,283.900000,707.710000,284.710000,707.040000C285.520000,706.370000,286.360000,705.760000,287.230000,705.170000C288.976979,704.001778,290.828185,702.997507,292.760000,702.170000C293.741432,701.766164,294.742719,701.412376,295.760000,701.110000C296.760000,700.800000,297.760000,700.550000,298.760000,700.340000C299.784992,700.134933,300.819626,699.981406,301.860000,699.880000C302.903396,699.776111,303.951452,699.726045,305,699.730000Z" transform="translate(0,0)" fill="rgb(229,81,45)" stroke="none" stroke-width="1"/></g><g id="e3a2j5dyxsy424_to" transform="translate(62.050000,63.600000)"><path id="e3a2j5dyxsy424" d="M275,784.730000C277.372142,784.722752,279.693217,785.418726,281.670000,786.730000C282.979920,787.605351,284.104649,788.730080,284.980000,790.040000C285.416068,790.696001,285.787792,791.392565,286.090000,792.120000C286.996632,794.312016,287.233263,796.723564,286.770000,799.050000C286.619568,799.820957,286.391748,800.574774,286.090000,801.300000C285.792044,802.029440,285.420100,802.726416,284.980000,803.380000C284.110473,804.694689,282.984689,805.820473,281.670000,806.690000C281.015221,807.128110,280.318451,807.499943,279.590000,807.800000C278.864774,808.101748,278.110957,808.329568,277.340000,808.480000C274.221330,809.099228,270.984387,808.455436,268.340000,806.690000C267.016446,805.829478,265.880387,804.710425,265,803.400000C264.127599,802.086714,263.519592,800.615948,263.210000,799.070000C262.899954,797.525405,262.899954,795.934595,263.210000,794.390000C263.523235,792.845160,264.130961,791.375073,265,790.060000C265.875351,788.750080,267.000080,787.625351,268.310000,786.750000C269.623286,785.877599,271.094052,785.269592,272.640000,784.960000C273.417415,784.807447,274.207759,784.730422,275,784.730000Z" transform="translate(0,0)" fill="rgb(229,81,45)" stroke="none" stroke-width="1"/></g><g id="e3a2j5dyxsy425_to" transform="translate(62.050000,63.600000)"><path id="e3a2j5dyxsy425" d="M300,703.770000C301.048890,703.746272,302.098149,703.796396,303.140000,703.920000C304.190000,704.070000,305.210000,704.180000,306.240000,704.380000C308.290042,704.811910,310.297865,705.424296,312.240000,706.210000C314.175756,707.009306,316.028038,707.997413,317.770000,709.160000C318.640000,709.750000,319.480000,710.370000,320.290000,711.030000C321.101849,711.693478,321.879515,712.397717,322.620000,713.140000C323.360000,713.880000,324.060000,714.660000,324.730000,715.470000C325.400000,716.280000,326.010000,717.120000,326.600000,717.990000C327.778552,719.730721,328.783371,721.582937,329.600000,723.520000C330.012634,724.498048,330.366595,725.499825,330.660000,726.520000C330.970000,727.520000,331.220000,728.520000,331.430000,729.520000C331.635067,730.544992,331.788594,731.579626,331.890000,732.620000C331.995080,733.663308,332.045150,734.711426,332.040000,735.760000C332.064939,736.808904,332.014811,737.858249,331.890000,738.900000C331.740000,739.950000,331.630000,740.970000,331.430000,742C331.228741,743.013409,330.971683,744.014933,330.660000,745C330.366595,746.020175,330.012634,747.021952,329.600000,748C328.781246,749.936041,327.776536,751.788054,326.600000,753.530000C326.010000,754.400000,325.390000,755.240000,324.730000,756.050000C324.066522,756.861849,323.362283,757.639515,322.620000,758.380000C321.880000,759.120000,321.100000,759.820000,320.290000,760.490000C319.480000,761.160000,318.640000,761.770000,317.770000,762.360000C316.025787,763.518821,314.173882,764.506728,312.240000,765.310000C311.260853,765.719790,310.259244,766.073692,309.240000,766.370000C308.240000,766.680000,307.240000,766.930000,306.240000,767.140000C305.215008,767.345067,304.180374,767.498594,303.140000,767.600000C302.096692,767.705080,301.048574,767.755150,300,767.750000C298.951096,767.774939,297.901751,767.724811,296.860000,767.600000C295.810000,767.450000,294.780000,767.340000,293.760000,767.140000C292.746865,766.937538,291.745406,766.680497,290.760000,766.370000C289.741778,766.070524,288.740342,765.716683,287.760000,765.310000C285.828147,764.502445,283.976640,763.514751,282.230000,762.360000C281.360000,761.770000,280.520000,761.150000,279.710000,760.490000C278.898151,759.826522,278.120485,759.122283,277.380000,758.380000C276.640000,757.640000,275.940000,756.860000,275.270000,756.050000C274.600000,755.240000,273.990000,754.400000,273.400000,753.530000C272.231238,751.783347,271.226940,749.932090,270.400000,748C269.996164,747.018568,269.642376,746.017281,269.340000,745C269.030000,744,268.780000,743,268.570000,742C268.364933,740.975008,268.211406,739.940374,268.110000,738.900000C268.004920,737.856692,267.954850,736.808574,267.960000,735.760000C267.935061,734.711096,267.985189,733.661751,268.110000,732.620000C268.260000,731.620000,268.370000,730.540000,268.570000,729.520000C268.772462,728.506865,269.029503,727.505406,269.340000,726.520000C269.642376,725.502719,269.996164,724.501432,270.400000,723.520000C271.224526,721.586743,272.228943,719.735266,273.400000,717.990000C273.990000,717.120000,274.610000,716.280000,275.270000,715.470000C275.933478,714.658151,276.637717,713.880485,277.380000,713.140000C278.120000,712.400000,278.900000,711.700000,279.710000,711.030000C280.520000,710.360000,281.360000,709.750000,282.230000,709.160000C283.974372,708.001445,285.826251,707.013553,287.760000,706.210000C288.740342,705.803317,289.741778,705.449476,290.760000,705.150000C291.760000,704.840000,292.760000,704.590000,293.760000,704.380000C294.784992,704.174933,295.819626,704.021406,296.860000,703.920000C297.903396,703.816111,298.951452,703.766045,300,703.770000Z" transform="translate(0,0)" opacity="0.2" fill="rgb(229,81,45)" stroke="none" stroke-width="1"/></g><g id="e3a2j5dyxsy426_to" transform="translate(62.050000,63.600000)"><path id="e3a2j5dyxsy426" d="M270,788.770000C270.785583,788.771211,271.569215,788.848235,272.340000,789C276.273101,789.781063,279.556159,792.475047,281.090000,796.180000C281.396377,796.903560,281.624345,797.657866,281.770000,798.430000C282.080046,799.974595,282.080046,801.565405,281.770000,803.110000C281.622807,803.881757,281.394888,804.635902,281.090000,805.360000C280.789943,806.088451,280.418110,806.785221,279.980000,807.440000C279.110473,808.754689,277.984689,809.880473,276.670000,810.750000C276.011888,811.182523,275.315666,811.554065,274.590000,811.860000C273.865265,812.163119,273.111307,812.390982,272.340000,812.540000C270.013564,813.003263,267.602016,812.766632,265.410000,811.860000C264.686357,811.549836,263.990499,811.178489,263.330000,810.750000C262.020080,809.874649,260.895351,808.749920,260.020000,807.440000C259.147599,806.126714,258.539592,804.655948,258.230000,803.110000C257.929988,801.564424,257.929988,799.975576,258.230000,798.430000C258.533473,796.885497,259.134650,795.414821,260,794.100000C261.769454,791.453987,264.517713,789.619417,267.640000,789C268.417487,788.847939,269.207783,788.770919,270,788.770000Z" transform="translate(0,0)" opacity="0.2" fill="rgb(229,81,45)" stroke="none" stroke-width="1"/></g></g></g></svg>