    <svg
      xmlns="http://www.w3.org/2000/svg"
      xmlns:xlink="http://www.w3.org/1999/xlink"
      viewBox="265 30 800 800"
    >
      <defs>
        <style>
          .cls-1 {
            fill: none;
          }
          .cls-2 {
            clip-path: url(#clip-path);
          }
          .cls-3 {
            clip-path: url(#clip-path-2);
          }
          .cls-4 {
            clip-path: url(#clip-path-3);
          }
          .cls-5 {
            fill: #ee7528;
          }
          .cls-6 {
            fill: #ee7428;
          }
          .cls-7 {
            fill: #ed7328;
          }
          .cls-8 {
            fill: #ed7228;
          }
          .cls-9 {
            fill: #ed7129;
          }
          .cls-10 {
            fill: #ed7029;
          }
          .cls-11 {
            fill: #ec6f29;
          }
          .cls-12 {
            fill: #ec6e29;
          }
          .cls-13 {
            fill: #ec6d29;
          }
          .cls-14 {
            fill: #ec6c29;
          }
          .cls-15 {
            fill: #eb6b29;
          }
          .cls-16 {
            fill: #eb6a2a;
          }
          .cls-17 {
            fill: #eb692a;
          }
          .cls-18 {
            fill: #eb682a;
          }
          .cls-19 {
            fill: #ea672a;
          }
          .cls-20 {
            fill: #ea662a;
          }
          .cls-21 {
            fill: #ea652a;
          }
          .cls-22 {
            fill: #ea642a;
          }
          .cls-23 {
            fill: #e9622b;
          }
          .cls-24 {
            fill: #e9612b;
          }
          .cls-25 {
            fill: #e9602b;
          }
          .cls-26 {
            fill: #e95f2b;
          }
          .cls-27 {
            fill: #e85e2b;
          }
          .cls-28 {
            fill: #e85d2b;
          }
          .cls-29 {
            fill: #e85c2b;
          }
          .cls-30 {
            fill: #e85b2c;
          }
          .cls-31 {
            fill: #e75a2c;
          }
          .cls-32 {
            fill: #e7592c;
          }
          .cls-33 {
            fill: #e7582c;
          }
          .cls-34 {
            fill: #e7572c;
          }
          .cls-35 {
            fill: #e6562c;
          }
          .cls-36 {
            fill: #e6552c;
          }
          .cls-37 {
            fill: #e6542d;
          }
          .cls-38 {
            fill: #e6532d;
          }
          .cls-39 {
            fill: #e5522d;
          }
          .cls-40,
          .cls-45 {
            fill: #e5512d;
          }
          .cls-41,
          .cls-45 {
            opacity: 0.2;
          }
          .cls-42 {
            clip-path: url(#clip-path-4);
          }
          .cls-43 {
            clip-path: url(#clip-path-5);
          }
          .cls-44 {
            clip-path: url(#clip-path-6);
          }
        </style>
        <clipPath id="clip-path" transform="translate(26.27 8.95)">
          <path
            class="cls-1"
            d="M565.92,713.14v-1.27C565.86,650.75,533.84,579,524,557c-18.39-41.21-34.68-77.72-70.44-110.46-61.49-56.21-103.8-31-137.08-74.22-41.64-54,12.89-108.67-17.14-215C297.86,152,262,29.34,196.56,20.15,129,10.64,40.8,123.92,10,237.16c-36.25,133.19,30.27,180.26,133.27,556,40,145.89,43.77,189.13,85.68,207.52,12.23,5.37,26,7.88,40.9,7.89,115.65,0,295.19-152.24,296.09-295.38"
          />
        </clipPath>
        <clipPath id="clip-path-2" transform="translate(26.27 8.95)">
          <rect class="cls-1" x="235.99" y="10.56" width="330" height="998" />
        </clipPath>
        <clipPath id="clip-path-3" transform="translate(26.27 8.95)">
          <rect
            class="cls-1"
            x="-26.27"
            y="10.64"
            width="592.2"
            height="997.88"
          />
        </clipPath>
        <clipPath id="clip-path-4" transform="translate(26.27 8.95)">
          <path
            class="cls-1"
            d="M565.92,693.55v-1.27c-.06-61.12-32.08-132.88-41.89-154.85-18.39-41.21-34.68-77.72-70.44-110.46-61.49-56.21-103.8-31-137.08-74.22-41.64-54,12.89-108.67-17.14-215C297.86,132.39,262,9.75,196.56.56,129-8.95,40.8,104.33,10,217.57c-36.25,133.19,30.27,180.26,133.27,556C183.26,919.41,187,962.65,228.94,981c12.23,5.37,26,7.88,40.9,7.89,115.65,0,295.19-152.24,296.09-295.38"
          />
        </clipPath>
        <clipPath id="clip-path-5" transform="translate(26.27 8.95)">
          <rect class="cls-1" x="235.99" y="-9.03" width="330" height="998" />
        </clipPath>
        <clipPath id="clip-path-6" transform="translate(26.27 8.95)">
          <rect
            class="cls-1"
            x="-26.27"
            y="-8.95"
            width="592.2"
            height="997.88"
          />
        </clipPath>
      </defs>
      <g id="Livello_2" data-name="Livello 2">
        <g id="Livello_1-2" data-name="Livello 1">
          <g class="cls-2">
            <g class="cls-3">
              <g class="cls-4">
                <path
                  class="cls-5"
                  d="M565.93,1008.52v0Z"
                  transform="translate(26.27 8.95)"
                />
                <rect
                  class="cls-5"
                  x="592"
                  y="19.59"
                  width="0.2"
                  height="997.88"
                />
                <rect
                  class="cls-5"
                  x="591.99"
                  y="19.59"
                  width="0.01"
                  height="997.88"
                />
                <rect
                  class="cls-6"
                  x="591.97"
                  y="19.59"
                  width="0.01"
                  height="997.88"
                />
                <rect
                  class="cls-7"
                  x="591.96"
                  y="19.59"
                  width="0.01"
                  height="997.88"
                />
                <rect
                  class="cls-8"
                  x="591.95"
                  y="19.59"
                  width="0.01"
                  height="997.88"
                />
                <rect
                  class="cls-9"
                  x="591.94"
                  y="19.59"
                  width="0.01"
                  height="997.88"
                />
                <rect
                  class="cls-10"
                  x="591.93"
                  y="19.59"
                  width="0.01"
                  height="997.88"
                />
                <rect
                  class="cls-11"
                  x="591.92"
                  y="19.59"
                  width="0.01"
                  height="997.88"
                />
                <rect
                  class="cls-12"
                  x="591.9"
                  y="19.59"
                  width="0.01"
                  height="997.88"
                />
                <rect
                  class="cls-13"
                  x="591.89"
                  y="19.59"
                  width="0.01"
                  height="997.88"
                />
                <rect
                  class="cls-14"
                  x="591.88"
                  y="19.59"
                  width="0.01"
                  height="997.88"
                />
                <rect
                  class="cls-15"
                  x="591.87"
                  y="19.59"
                  width="0.01"
                  height="997.88"
                />
                <rect
                  class="cls-16"
                  x="591.86"
                  y="19.59"
                  width="0.01"
                  height="997.88"
                />
                <rect
                  class="cls-17"
                  x="591.84"
                  y="19.59"
                  width="0.01"
                  height="997.88"
                />
                <rect
                  class="cls-18"
                  x="591.83"
                  y="19.59"
                  width="0.01"
                  height="997.88"
                />
                <rect
                  class="cls-19"
                  x="591.82"
                  y="19.59"
                  width="0.01"
                  height="997.88"
                />
                <rect
                  class="cls-20"
                  x="591.81"
                  y="19.59"
                  width="0.01"
                  height="997.88"
                />
                <rect
                  class="cls-21"
                  x="591.8"
                  y="19.59"
                  width="0.01"
                  height="997.88"
                />
                <rect
                  class="cls-22"
                  x="591.79"
                  y="19.59"
                  width="0.01"
                  height="997.88"
                />
                <rect
                  class="cls-23"
                  x="591.77"
                  y="19.59"
                  width="0.01"
                  height="997.88"
                />
                <rect
                  class="cls-24"
                  x="591.76"
                  y="19.59"
                  width="0.01"
                  height="997.88"
                />
                <rect
                  class="cls-25"
                  x="591.75"
                  y="19.59"
                  width="0.01"
                  height="997.88"
                />
                <rect
                  class="cls-26"
                  x="591.74"
                  y="19.59"
                  width="0.01"
                  height="997.88"
                />
                <rect
                  class="cls-27"
                  x="591.73"
                  y="19.59"
                  width="0.01"
                  height="997.88"
                />
                <rect
                  class="cls-28"
                  x="591.72"
                  y="19.59"
                  width="0.01"
                  height="997.88"
                />
                <rect
                  class="cls-29"
                  x="591.7"
                  y="19.59"
                  width="0.01"
                  height="997.88"
                />
                <rect
                  class="cls-30"
                  x="591.69"
                  y="19.59"
                  width="0.01"
                  height="997.88"
                />
                <rect
                  class="cls-31"
                  x="591.68"
                  y="19.59"
                  width="0.01"
                  height="997.88"
                />
                <rect
                  class="cls-32"
                  x="591.67"
                  y="19.59"
                  width="0.01"
                  height="997.88"
                />
                <rect
                  class="cls-33"
                  x="591.66"
                  y="19.59"
                  width="0.01"
                  height="997.88"
                />
                <rect
                  class="cls-34"
                  x="591.64"
                  y="19.59"
                  width="0.01"
                  height="997.88"
                />
                <rect
                  class="cls-35"
                  x="591.63"
                  y="19.59"
                  width="0.01"
                  height="997.88"
                />
                <rect
                  class="cls-36"
                  x="591.62"
                  y="19.59"
                  width="0.01"
                  height="997.88"
                />
                <rect
                  class="cls-37"
                  x="591.61"
                  y="19.59"
                  width="0.01"
                  height="997.88"
                />
                <rect
                  class="cls-38"
                  x="591.6"
                  y="19.59"
                  width="0.01"
                  height="997.88"
                />
                <rect
                  class="cls-39"
                  x="591.59"
                  y="19.59"
                  width="0.01"
                  height="997.88"
                />
                <rect
                  class="cls-40"
                  x="591.57"
                  y="19.59"
                  width="0.01"
                  height="997.88"
                />
                <rect
                  class="cls-40"
                  x="591.28"
                  y="19.59"
                  width="0.29"
                  height="997.88"
                />
                <rect class="cls-40" y="19.59" width="591.28" height="997.88" />
              </g>
            </g>
          </g>
          <g class="cls-41">
            <g class="cls-42">
              <g class="cls-43">
                <g class="cls-44">
                  <path
                    class="cls-5"
                    d="M565.93,988.93v0Z"
                    transform="translate(26.27 8.95)"
                  />
                  <rect class="cls-5" x="592" width="0.2" height="997.88" />
                  <rect class="cls-5" x="591.99" width="0.01" height="997.88" />
                  <rect class="cls-6" x="591.97" width="0.01" height="997.88" />
                  <rect class="cls-7" x="591.96" width="0.01" height="997.88" />
                  <rect class="cls-8" x="591.95" width="0.01" height="997.88" />
                  <rect class="cls-9" x="591.94" width="0.01" height="997.88" />
                  <rect
                    class="cls-10"
                    x="591.93"
                    width="0.01"
                    height="997.88"
                  />
                  <rect
                    class="cls-11"
                    x="591.92"
                    width="0.01"
                    height="997.88"
                  />
                  <rect class="cls-12" x="591.9" width="0.01" height="997.88" />
                  <rect
                    class="cls-13"
                    x="591.89"
                    width="0.01"
                    height="997.88"
                  />
                  <rect
                    class="cls-14"
                    x="591.88"
                    width="0.01"
                    height="997.88"
                  />
                  <rect
                    class="cls-15"
                    x="591.87"
                    width="0.01"
                    height="997.88"
                  />
                  <rect
                    class="cls-16"
                    x="591.86"
                    width="0.01"
                    height="997.88"
                  />
                  <rect
                    class="cls-17"
                    x="591.84"
                    width="0.01"
                    height="997.88"
                  />
                  <rect
                    class="cls-18"
                    x="591.83"
                    width="0.01"
                    height="997.88"
                  />
                  <rect
                    class="cls-19"
                    x="591.82"
                    width="0.01"
                    height="997.88"
                  />
                  <rect
                    class="cls-20"
                    x="591.81"
                    width="0.01"
                    height="997.88"
                  />
                  <rect class="cls-21" x="591.8" width="0.01" height="997.88" />
                  <rect
                    class="cls-22"
                    x="591.79"
                    width="0.01"
                    height="997.88"
                  />
                  <rect
                    class="cls-23"
                    x="591.77"
                    width="0.01"
                    height="997.88"
                  />
                  <rect
                    class="cls-24"
                    x="591.76"
                    width="0.01"
                    height="997.88"
                  />
                  <rect
                    class="cls-25"
                    x="591.75"
                    width="0.01"
                    height="997.88"
                  />
                  <rect
                    class="cls-26"
                    x="591.74"
                    width="0.01"
                    height="997.88"
                  />
                  <rect
                    class="cls-27"
                    x="591.73"
                    width="0.01"
                    height="997.88"
                  />
                  <rect
                    class="cls-28"
                    x="591.72"
                    width="0.01"
                    height="997.88"
                  />
                  <rect class="cls-29" x="591.7" width="0.01" height="997.88" />
                  <rect
                    class="cls-30"
                    x="591.69"
                    width="0.01"
                    height="997.88"
                  />
                  <rect
                    class="cls-31"
                    x="591.68"
                    width="0.01"
                    height="997.88"
                  />
                  <rect
                    class="cls-32"
                    x="591.67"
                    width="0.01"
                    height="997.88"
                  />
                  <rect
                    class="cls-33"
                    x="591.66"
                    width="0.01"
                    height="997.88"
                  />
                  <rect
                    class="cls-34"
                    x="591.64"
                    width="0.01"
                    height="997.88"
                  />
                  <rect
                    class="cls-35"
                    x="591.63"
                    width="0.01"
                    height="997.88"
                  />
                  <rect
                    class="cls-36"
                    x="591.62"
                    width="0.01"
                    height="997.88"
                  />
                  <rect
                    class="cls-37"
                    x="591.61"
                    width="0.01"
                    height="997.88"
                  />
                  <rect class="cls-38" x="591.6" width="0.01" height="997.88" />
                  <rect
                    class="cls-39"
                    x="591.59"
                    width="0.01"
                    height="997.88"
                  />
                  <rect
                    class="cls-40"
                    x="591.57"
                    width="0.01"
                    height="997.88"
                  />
                  <rect
                    class="cls-40"
                    x="591.28"
                    width="0.29"
                    height="997.88"
                  />
                  <rect class="cls-40" width="591.28" height="997.88" />
                </g>
              </g>
            </g>
          </g>
          <path
            class="cls-40"
            d="M623,408.56a15.24,15.24,0,0,1,2.93.29,14.67,14.67,0,0,1,2.81.85,15,15,0,0,1,2.59,1.39,14.71,14.71,0,0,1,4.14,4.14,15,15,0,0,1,1.39,2.59,14.67,14.67,0,0,1,.85,2.81,14.82,14.82,0,0,1,0,5.86,14.67,14.67,0,0,1-.85,2.81,15,15,0,0,1-1.39,2.59,14.71,14.71,0,0,1-4.14,4.14,15,15,0,0,1-2.59,1.39,14.67,14.67,0,0,1-2.81.85,14.82,14.82,0,0,1-5.86,0,14.46,14.46,0,0,1-2.81-.85,14.65,14.65,0,0,1-2.59-1.39,14.45,14.45,0,0,1-4.14-4.14,15,15,0,0,1-1.39-2.59,14.67,14.67,0,0,1-.85-2.81,14.82,14.82,0,0,1,0-5.86,14.67,14.67,0,0,1,.85-2.81,15,15,0,0,1,1.39-2.59,14.45,14.45,0,0,1,4.14-4.14,14.65,14.65,0,0,1,2.59-1.39,14.46,14.46,0,0,1,2.81-.85A15.08,15.08,0,0,1,623,408.56Z"
            transform="translate(26.27 8.95)"
          />
          <path
            class="cls-45"
            d="M627.65,403a14.48,14.48,0,0,1,2.93.29,14,14,0,0,1,2.81.85,15.09,15.09,0,0,1,6.73,5.53,14.65,14.65,0,0,1,1.39,2.59,14.25,14.25,0,0,1,.85,2.81,14.82,14.82,0,0,1,0,5.86,14.67,14.67,0,0,1-.85,2.81,15.39,15.39,0,0,1-1.39,2.59,14.71,14.71,0,0,1-4.14,4.14,15.73,15.73,0,0,1-2.59,1.39,15.42,15.42,0,0,1-2.81.85,15.2,15.2,0,0,1-5.86,0,15.42,15.42,0,0,1-2.81-.85,15.73,15.73,0,0,1-2.59-1.39,14.71,14.71,0,0,1-4.14-4.14,15.39,15.39,0,0,1-1.39-2.59,14.67,14.67,0,0,1-.85-2.81,14.82,14.82,0,0,1,0-5.86,14.25,14.25,0,0,1,.85-2.81,14.65,14.65,0,0,1,1.39-2.59,15.09,15.09,0,0,1,6.73-5.53,14,14,0,0,1,2.81-.85A14.41,14.41,0,0,1,627.65,403Z"
            transform="translate(26.27 8.95)"
          />
        </g>
      </g>
    </svg>