    <svg
      xmlns="http://www.w3.org/2000/svg"
      xmlns:xlink="http://www.w3.org/1999/xlink"
      viewBox="60 200 350 675"
      width="350"
      height="675"
    >
      <defs>
        <style>
          .cls-1 {
            fill: none;
          }
          .cls-2 {
            clip-path: url(#clip-path);
          }
          .cls-3 {
            clip-path: url(#clip-path-2);
          }
          .cls-4 {
            fill: url(#Sfumatura_senza_nome);
          }
          .cls-10,
          .cls-5 {
            opacity: 0.2;
          }
          .cls-6 {
            clip-path: url(#clip-path-3);
          }
          .cls-7 {
            clip-path: url(#clip-path-4);
          }
          .cls-8 {
            fill: url(#Sfumatura_senza_nome-2);
          }
          .cls-10,
          .cls-9 {
            fill: #e5512d;
          }
        </style>
        <clipPath id="clip-path" transform="translate(62.05 63.6)">
          <path
            class="cls-1"
            d="M4.41,357.43c.06.29.13.59.2.88l.08.36C18.5,418.21,65.85,480.93,80.34,500.13c27.19,36,51.27,67.92,93.48,91.75,72.57,41,108.13,6.92,150.27,41.51,52.73,43.29,11.89,108.79,65.07,205.66,2.68,4.89,65.26,116.33,131,110.56,68-6,128.42-136.19,133-253.46,5.36-137.93-70-168.83-254.91-511.71C326.46,51.3,313.06,10,268.09,1.5,255-1,240.94-.32,226.46,3,113.78,29-26.92,217.76,4.46,357.43"
          />
        </clipPath>
        <clipPath id="clip-path-2" transform="translate(62.05 63.6)">
          <rect
            class="cls-1"
            x="-62.06"
            y="100.3"
            width="410"
            height="941.75"
          />
        </clipPath>
        <linearGradient
          id="Sfumatura_senza_nome"
          x1="-841.7"
          y1="-1546.77"
          x2="-840.78"
          y2="-1546.77"
          gradientTransform="translate(884.3 2035.93)"
          gradientUnits="userSpaceOnUse"
        >
          <stop offset="0" stop-color="#ee7528" />
          <stop offset="0.22" stop-color="#ee7528" />
          <stop offset="0.68" stop-color="#e5512d" />
          <stop offset="1" stop-color="#e5512d" />
        </linearGradient>
        <clipPath id="clip-path-3" transform="translate(62.05 63.6)">
          <path
            class="cls-1"
            d="M4.41,369.62c.06.29.13.59.2.88l.08.36C18.5,430.4,65.85,493.12,80.34,512.32c27.19,36,51.27,67.92,93.48,91.75,72.57,41,108.13,6.92,150.27,41.51,52.73,43.29,11.89,108.79,65.07,205.66,2.68,4.89,65.26,116.33,131,110.56,68-6,128.42-136.19,133-253.46,5.36-137.93-70-168.83-254.91-511.71C326.46,63.49,313.06,22.18,268.09,13.69c-13.12-2.48-27.15-1.82-41.63,1.52C113.78,41.21-26.92,230,4.46,369.62"
          />
        </clipPath>
        <clipPath id="clip-path-4" transform="translate(62.05 63.6)">
          <rect
            class="cls-1"
            x="-62.06"
            y="112.49"
            width="410"
            height="941.75"
          />
        </clipPath>
        <linearGradient
          id="Sfumatura_senza_nome-2"
          x1="-844.44"
          y1="-1534.88"
          x2="-843.52"
          y2="-1534.88"
          gradientTransform="translate(887.05 2036.24)"
          xlink:href="#Sfumatura_senza_nome"
        />
      </defs>
      <g id="Livello_2" data-name="Livello 2">
        <g id="Livello_1-2" data-name="Livello 1">
          <g class="cls-2">
            <g class="cls-3">
              <rect
                class="cls-4"
                x="42.6"
                y="-9.78"
                width="592.2"
                height="997.88"
                transform="translate(-39.31 152.33) rotate(-13)"
              />
            </g>
          </g>
          <g class="cls-5">
            <g class="cls-6">
              <g class="cls-7">
                <rect
                  class="cls-8"
                  x="42.6"
                  y="2.42"
                  width="592.2"
                  height="997.88"
                  transform="translate(-42.05 152.64) rotate(-13)"
                />
              </g>
            </g>
          </g>
          <path
            class="cls-9"
            d="M305,699.73a22.36,22.36,0,0,1,3.14.15c1.05.15,2.07.26,3.1.46a28.07,28.07,0,0,1,3,.77,31.38,31.38,0,0,1,3,1.06,33.7,33.7,0,0,1,5.53,3c.87.59,1.71,1.21,2.52,1.87a31,31,0,0,1,2.33,2.11c.74.74,1.44,1.52,2.11,2.33s1.28,1.65,1.87,2.52a32.87,32.87,0,0,1,3,5.53,29.7,29.7,0,0,1,1.06,3c.31,1,.56,2,.77,3a31.26,31.26,0,0,1,.46,3.1,29.87,29.87,0,0,1,.15,3.14,22,22,0,0,1-.15,3.14c-.15,1-.26,2.07-.46,3.1a28.07,28.07,0,0,1-.77,3,28.85,28.85,0,0,1-1.06,3,32.12,32.12,0,0,1-3,5.53c-.59.87-1.21,1.71-1.87,2.52a31,31,0,0,1-2.11,2.33c-.74.74-1.52,1.44-2.33,2.11s-1.65,1.28-2.52,1.87a32.24,32.24,0,0,1-5.53,2.95,26.71,26.71,0,0,1-3,1.06c-1,.31-2,.56-3,.77a31.26,31.26,0,0,1-3.1.46,29.87,29.87,0,0,1-3.14.15,22,22,0,0,1-3.14-.15c-1.05-.15-2.08-.26-3.1-.46a28.69,28.69,0,0,1-3-.77,26.71,26.71,0,0,1-3-1.06,32.62,32.62,0,0,1-5.53-2.95c-.87-.59-1.71-1.21-2.52-1.87a31,31,0,0,1-2.33-2.11c-.74-.74-1.44-1.52-2.11-2.33s-1.28-1.65-1.87-2.52a32.81,32.81,0,0,1-3-5.53,28.85,28.85,0,0,1-1.06-3c-.31-1-.56-2-.77-3a31.26,31.26,0,0,1-.46-3.1,29.87,29.87,0,0,1-.15-3.14,22,22,0,0,1,.15-3.14c.15-1.05.26-2.08.46-3.1a28.69,28.69,0,0,1,.77-3,29.7,29.7,0,0,1,1.06-3,33.6,33.6,0,0,1,3-5.53c.59-.87,1.21-1.71,1.87-2.52a31,31,0,0,1,2.11-2.33c.74-.74,1.52-1.44,2.33-2.11s1.65-1.28,2.52-1.87a34.11,34.11,0,0,1,5.53-3,31.38,31.38,0,0,1,3-1.06c1-.31,2-.56,3-.77a31.26,31.26,0,0,1,3.1-.46A30.53,30.53,0,0,1,305,699.73Z"
            transform="translate(62.05 63.6)"
          />
          <path
            class="cls-9"
            d="M275,784.73a12,12,0,0,1,6.67,2,12,12,0,0,1,3.31,3.31,12.24,12.24,0,0,1,1.11,2.08,12,12,0,0,1,.68,6.93,11.68,11.68,0,0,1-.68,2.25,11.53,11.53,0,0,1-1.11,2.08,11.72,11.72,0,0,1-3.31,3.31,11.87,11.87,0,0,1-2.08,1.11,11.68,11.68,0,0,1-2.25.68,12,12,0,0,1-9-1.79A11.72,11.72,0,0,1,265,803.4a12.13,12.13,0,0,1-1.79-4.33,11.89,11.89,0,0,1,0-4.68,12.28,12.28,0,0,1,1.79-4.33,12,12,0,0,1,3.31-3.31,12.13,12.13,0,0,1,4.33-1.79A12.29,12.29,0,0,1,275,784.73Z"
            transform="translate(62.05 63.6)"
          />
          <path
            class="cls-10"
            d="M300,703.77a22.36,22.36,0,0,1,3.14.15c1.05.15,2.07.26,3.1.46a35.53,35.53,0,0,1,6,1.83,31.88,31.88,0,0,1,5.53,2.95c.87.59,1.71,1.21,2.52,1.87a31,31,0,0,1,2.33,2.11c.74.74,1.44,1.52,2.11,2.33s1.28,1.65,1.87,2.52a32.12,32.12,0,0,1,3,5.53,26.71,26.71,0,0,1,1.06,3c.31,1,.56,2,.77,3a31.26,31.26,0,0,1,.46,3.1,29.87,29.87,0,0,1,.15,3.14,22,22,0,0,1-.15,3.14c-.15,1.05-.26,2.07-.46,3.1a28.07,28.07,0,0,1-.77,3,26.71,26.71,0,0,1-1.06,3,32.49,32.49,0,0,1-3,5.53c-.59.87-1.21,1.71-1.87,2.52a31,31,0,0,1-2.11,2.33c-.74.74-1.52,1.44-2.33,2.11s-1.65,1.28-2.52,1.87a32.57,32.57,0,0,1-5.53,2.95,28.06,28.06,0,0,1-3,1.06c-1,.31-2,.56-3,.77a31.26,31.26,0,0,1-3.1.46,29.87,29.87,0,0,1-3.14.15,22,22,0,0,1-3.14-.15c-1.05-.15-2.08-.26-3.1-.46a28.69,28.69,0,0,1-3-.77,29.7,29.7,0,0,1-3-1.06,33.35,33.35,0,0,1-5.53-2.95c-.87-.59-1.71-1.21-2.52-1.87a31,31,0,0,1-2.33-2.11c-.74-.74-1.44-1.52-2.11-2.33s-1.28-1.65-1.87-2.52a34,34,0,0,1-3-5.53,31.38,31.38,0,0,1-1.06-3c-.31-1-.56-2-.77-3a31.26,31.26,0,0,1-.46-3.1,29.87,29.87,0,0,1-.15-3.14,22,22,0,0,1,.15-3.14c.15-1,.26-2.08.46-3.1a28.69,28.69,0,0,1,.77-3,31.38,31.38,0,0,1,1.06-3,33.54,33.54,0,0,1,3-5.53c.59-.87,1.21-1.71,1.87-2.52a31,31,0,0,1,2.11-2.33c.74-.74,1.52-1.44,2.33-2.11s1.65-1.28,2.52-1.87a32.62,32.62,0,0,1,5.53-2.95,29.7,29.7,0,0,1,3-1.06c1-.31,2-.56,3-.77a31.26,31.26,0,0,1,3.1-.46A30.53,30.53,0,0,1,300,703.77Z"
            transform="translate(62.05 63.6)"
          />
          <path
            class="cls-10"
            d="M270,788.77a12.21,12.21,0,0,1,2.34.23,12,12,0,0,1,8.75,7.18,11,11,0,0,1,.68,2.25,11.89,11.89,0,0,1,0,4.68,11.21,11.21,0,0,1-.68,2.25,11.87,11.87,0,0,1-1.11,2.08,11.72,11.72,0,0,1-3.31,3.31,12.94,12.94,0,0,1-2.08,1.11,11.47,11.47,0,0,1-2.25.68,12,12,0,0,1-6.93-.68,13.84,13.84,0,0,1-2.08-1.11,12,12,0,0,1-3.31-3.31,12.13,12.13,0,0,1-1.79-4.33,12.28,12.28,0,0,1,0-4.68A12.13,12.13,0,0,1,260,794.1a12,12,0,0,1,7.64-5.1A12.37,12.37,0,0,1,270,788.77Z"
            transform="translate(62.05 63.6)"
          />
        </g>
      </g>
    </svg>